<svg width="168" height="27" viewBox="0 0 168 27" fill="none" xmlns="http://www.w3.org/2000/svg">
<path d="M40.4749 8.92484C40.4749 6.7559 40.4123 6.52649 38.4102 6.25537V5.87998H43.5198V6.25537C41.5177 6.52649 41.4551 6.7559 41.4551 8.92484V21H39.7033L30.8189 9.50878V17.9551C30.8189 20.0824 30.8815 20.3952 32.8836 20.6246V21H27.7741V20.6246C29.7762 20.3952 29.8388 20.0824 29.8388 17.9551V8.23662L29.4842 7.7778C28.7543 6.79761 28.358 6.42221 27.7741 6.19281V5.87998H31.6532L40.4749 17.2252V8.92484Z" fill="white"/>
<path d="M49.2911 21.2711C45.996 21.2711 44.1816 18.9145 44.1816 15.6611C44.1816 12.3868 46.5591 9.5922 49.4371 9.5922C51.9397 9.5922 53.7958 11.1563 53.9627 14.0969H46.5174V14.2638C46.5174 17.6632 48.3318 19.2482 50.5841 19.2482C52.0023 19.2482 53.0868 18.7268 53.7541 18.0386L54.0044 18.2471C53.2745 19.4776 51.8146 21.2711 49.2911 21.2711ZM49.1243 10.4056C47.6227 10.4056 46.7885 11.5109 46.5591 13.2627H51.3349C51.2515 11.2606 50.3547 10.4056 49.1243 10.4056Z" fill="white"/>
<path d="M58.7995 21.2711C57.0685 21.2711 56.1091 20.3952 56.1091 17.8926V10.6975H54.3364V9.7799H56.1508V8.17405L58.7369 6.21366V9.7799H61.4689V10.6975H58.7369V17.4546C58.7369 19.0813 58.8203 19.7487 60.0716 19.7487C60.6347 19.7487 61.1144 19.5818 61.7609 19.1022L61.9694 19.2899C61.1978 20.2284 60.4887 21.2711 58.7995 21.2711Z" fill="white"/>
<path d="M72.3602 21.1668L69.9202 13.3253L67.3967 21.1668H66.0828L62.9545 11.5526C62.6417 10.635 62.4123 10.2387 61.5572 10.1553V9.7799H67.0421V10.1553C65.4989 10.2596 65.5823 10.7392 65.916 11.8029L67.6261 17.6215L70.087 9.7799H71.4634L73.8409 17.6632L75.3634 12.8039C76.0307 10.6767 75.8639 10.2596 74.6543 10.1553V9.7799H78.4291V10.1553C77.3863 10.2596 77.0944 10.5933 76.5938 12.1157L73.695 21.1668H72.3602Z" fill="white"/>
<path d="M83.811 10.343C81.9132 10.343 81.1624 12.2408 81.1624 14.6809C81.1624 16.7038 81.9132 20.5203 84.3533 20.5203C86.2094 20.5203 86.9602 18.5391 86.9602 16.1199C86.9602 14.1595 86.2302 10.343 83.811 10.343ZM83.9987 9.5922C87.1062 9.5922 89.7339 12.0323 89.7339 15.4108C89.7339 18.5808 87.3356 21.2711 84.103 21.2711C80.933 21.2711 78.3678 18.8102 78.3678 15.3691C78.3678 12.2825 80.7245 9.5922 83.9987 9.5922Z" fill="white"/>
<path d="M90.507 21V20.6246C92.1546 20.4578 92.1754 20.1241 92.1754 17.9969V13.367C92.1754 11.4275 92.0294 11.4066 90.507 11.344V10.9895L94.7615 9.5922L94.8032 11.9906C95.5748 10.9895 96.6176 9.5922 97.9732 9.5922C98.9534 9.5922 99.6833 10.1553 99.6833 11.1563C99.6833 11.9697 99.0159 12.6788 98.0775 12.6788C97.7229 12.6788 97.5769 12.5954 97.2641 12.2617L96.5967 11.49C96.4925 11.3649 96.3882 11.3023 96.3048 11.3023C95.9919 11.3023 95.3663 11.8654 94.8032 12.5954V17.9969C94.8032 20.2909 94.9492 20.4161 97.139 20.5829V21H90.507Z" fill="white"/>
<path d="M101.431 17.9969V7.59011C101.431 5.65057 101.285 5.65057 99.7625 5.58801V5.23347L104.121 3.83617C104.1 4.9415 104.059 6.29708 104.059 8.44517V17.9969C104.059 20.1241 104.08 20.4578 105.727 20.6246V21H99.7625V20.6246C101.41 20.4578 101.431 20.1241 101.431 17.9969ZM106.978 21V20.6246C108.376 20.5412 108.417 20.2701 107.562 19.2065L104.1 14.9728L107.625 11.9697C108.626 11.0938 109.377 10.1553 107.562 10.1553V9.7799H112.255V10.1553C110.962 10.1553 110.128 10.6975 108.73 11.928L106.436 13.8675L110.92 19.4567C111.567 20.2284 112.088 20.6038 113.006 20.6246V21H106.978Z" fill="white"/>
<path d="M123.693 21.2711C121.628 21.2711 119.897 20.7914 118.667 20.1449V15.0563H119.084C119.647 18.9562 121.232 20.4995 123.693 20.4995C125.528 20.4995 127.051 19.6236 127.051 17.7257C127.051 16.3284 125.925 15.5568 124.256 14.7852L122.4 13.9092C120.168 12.8456 118.792 11.49 118.792 9.46707C118.792 7.06873 121.065 5.40031 123.985 5.40031C125.487 5.40031 127.447 5.81741 128.469 6.44307V10.7184H128.052C127.468 7.71524 126.05 6.17195 123.964 6.17195C122.275 6.17195 121.086 6.94359 121.086 8.42431C121.086 9.86332 122.066 10.5515 123.172 11.0521L125.382 12.0948C127.718 13.2002 129.428 14.3055 129.428 16.5996C129.428 19.3316 126.8 21.2711 123.693 21.2711Z" fill="white"/>
<path d="M134.474 21.2711C132.743 21.2711 131.783 20.3952 131.783 17.8926V10.6975H130.011V9.7799H131.825V8.17405L134.411 6.21366V9.7799H137.143V10.6975H134.411V17.4546C134.411 19.0813 134.495 19.7487 135.746 19.7487C136.309 19.7487 136.789 19.5818 137.435 19.1022L137.644 19.2899C136.872 20.2284 136.163 21.2711 134.474 21.2711Z" fill="white"/>
<path d="M144.468 19.4567C143.717 20.5203 142.883 21.2711 141.382 21.2711C139.838 21.2711 138.003 20.3326 138.003 18.5182C138.003 17.1626 139.254 16.391 141.444 15.3274C142.007 15.0563 142.946 14.6183 144.51 13.9509V13.3879C144.51 11.1981 143.947 10.4264 142.55 10.4264C140.777 10.4264 140.527 11.7194 140.631 13.3253H138.274C138.274 11.5734 140.381 9.61306 143.05 9.61306C145.01 9.61306 147.033 10.3638 146.971 13.1584L146.846 18.5599C146.825 19.7278 147.033 19.9155 147.596 19.9155C147.93 19.9155 148.201 19.7278 148.514 19.4984L148.723 19.707C148.16 20.3952 147.388 21.1668 146.387 21.1668C145.553 21.1668 144.531 20.4995 144.468 19.4567ZM144.406 18.8728L144.468 14.7017C142.883 15.3482 142.112 15.7445 141.757 15.9739C140.902 16.4953 140.547 16.9749 140.547 17.7883C140.547 18.7893 141.361 19.853 142.654 19.853C143.425 19.853 143.926 19.5193 144.406 18.8728Z" fill="white"/>
<path d="M152.967 21.2711C151.236 21.2711 150.277 20.3952 150.277 17.8926V10.6975H148.504V9.7799H150.319V8.17405L152.905 6.21366V9.7799H155.637V10.6975H152.905V17.4546C152.905 19.0813 152.988 19.7487 154.239 19.7487C154.802 19.7487 155.282 19.5818 155.929 19.1022L156.137 19.2899C155.366 20.2284 154.656 21.2711 152.967 21.2711Z" fill="white"/>
<path d="M161.606 21.2711C158.311 21.2711 156.497 18.9145 156.497 15.6611C156.497 12.3868 158.874 9.5922 161.752 9.5922C164.255 9.5922 166.111 11.1563 166.278 14.0969H158.832V14.2638C158.832 17.6632 160.647 19.2482 162.899 19.2482C164.317 19.2482 165.402 18.7268 166.069 18.0386L166.319 18.2471C165.589 19.4776 164.13 21.2711 161.606 21.2711ZM161.439 10.4056C159.938 10.4056 159.104 11.5109 158.874 13.2627H163.65C163.567 11.2606 162.67 10.4056 161.439 10.4056Z" fill="white"/>
<path d="M1.31562 6.81345C1.64753 6.66844 1.87948 6.33728 1.87948 5.95193C1.87948 5.43294 1.45874 5.01222 0.939728 5.01222C0.420711 5.01222 -3.05176e-05 5.43294 -3.05176e-05 5.95193C-3.05176e-05 6.33728 0.231918 6.66844 0.563821 6.81345V23.514C0.563821 23.6466 0.671311 23.7542 0.803948 23.7542H1.07552C1.20815 23.7542 1.31562 23.6466 1.31562 23.514V6.81345Z" fill="white"/>
<path fill-rule="evenodd" clip-rule="evenodd" d="M8.62472 18.8634C5.74286 18.8634 4.15723 19.0312 2.66261 19.2879C2.51511 19.3132 2.37977 19.2001 2.37977 19.0504V6.8408C2.37977 6.71984 2.46947 6.6178 2.58944 6.60234L2.88365 6.56426C4.29633 6.38083 6.03619 6.15494 8.29168 6.15494C10.2424 6.15494 11.8459 6.33197 13.2641 6.48855C14.3885 6.61269 15.3964 6.72397 16.3686 6.72397C18.4349 6.72397 19.9274 6.64017 21.3439 6.47257C21.4876 6.45558 21.6143 6.56732 21.6143 6.71191V18.9563C21.6143 19.0684 21.5373 19.1658 21.4268 19.1845C20.452 19.3498 18.1563 19.4324 16.3686 19.4324C15.5178 19.4324 14.4863 19.3201 13.3397 19.1953L13.3376 19.1951C11.9037 19.039 10.2899 18.8634 8.62472 18.8634ZM12.6968 9.33314V12.1156C13.9425 12.2514 14.6198 12.3192 15.5355 12.3192V14.0263C14.6901 14.0263 13.8448 13.9585 12.6968 13.8227V16.6425C12.2903 16.5684 12.0234 16.5308 11.8075 16.5004L11.8062 16.5002C11.5845 16.469 11.4165 16.4453 11.2057 16.3973C11.1948 16.16 11.1924 14.9859 11.1936 13.6519C10.0507 13.5521 9.07888 13.5521 8.54112 13.5521V11.9068C8.63192 11.9068 8.72414 11.9066 8.81784 11.9064C9.51974 11.9053 10.3054 11.904 11.1966 11.967C11.2003 10.477 11.2057 9.1895 11.2057 9.1895C11.622 9.1895 12.6968 9.33314 12.6968 9.33314Z" fill="white"/>
</svg>
