<svg width="189" height="27" viewBox="0 0 189 27" fill="none" xmlns="http://www.w3.org/2000/svg">
<path d="M1.31565 5.80123C1.64756 5.65622 1.87951 5.32505 1.87951 4.93971C1.87951 4.42072 1.45877 4 0.939759 4C0.420741 4 0 4.42072 0 4.93971C0 5.32505 0.231948 5.65621 0.563851 5.80122V22.5018C0.563851 22.6344 0.671341 22.7419 0.803979 22.7419H1.07555C1.20818 22.7419 1.31565 22.6344 1.31565 22.5018V5.80123Z" fill="#0F172A"/>
<path fill-rule="evenodd" clip-rule="evenodd" d="M8.62475 17.8512C5.74289 17.8512 4.15726 18.0189 2.66264 18.2757C2.51514 18.3009 2.3798 18.1878 2.3798 18.0382V5.82858C2.3798 5.70762 2.4695 5.60558 2.58947 5.59012L2.88368 5.55203C4.29636 5.36861 6.03622 5.14271 8.29171 5.14271C10.2424 5.14271 11.8459 5.31975 13.2641 5.47633C14.3885 5.60046 15.3965 5.71175 16.3686 5.71175C18.4349 5.71175 19.9274 5.62795 21.3439 5.46035C21.4876 5.44336 21.6143 5.55509 21.6143 5.69969V17.9441C21.6143 18.0562 21.5373 18.1536 21.4268 18.1723C20.452 18.3376 18.1563 18.4202 16.3686 18.4202C15.5178 18.4202 14.4863 18.3079 13.3397 18.1831L13.3376 18.1829C11.9037 18.0268 10.29 17.8512 8.62475 17.8512ZM12.6968 8.32092V11.1034C13.9425 11.2391 14.6199 11.307 15.5355 11.307V13.0141C14.6902 13.0141 13.8449 12.9463 12.6968 12.8104V15.6302C12.2904 15.5562 12.0235 15.5186 11.8075 15.4882L11.8063 15.488C11.5846 15.4567 11.4165 15.433 11.2057 15.385C11.1948 15.1478 11.1924 13.9737 11.1937 12.6397C10.0507 12.5399 9.07891 12.5399 8.54115 12.5399V10.8945C8.63195 10.8945 8.72417 10.8944 8.81787 10.8942C9.51977 10.8931 10.3055 10.8918 11.1966 10.9547C11.2003 9.46476 11.2057 8.17728 11.2057 8.17728C11.622 8.17728 12.6968 8.32092 12.6968 8.32092Z" fill="#0F172A"/>
<path d="M183.849 7.5901C183.849 5.65057 183.703 5.65057 182.181 5.588V5.23346L186.54 3.83617C186.519 4.94149 186.477 6.29708 186.477 8.44516V17.9968C186.477 20.1241 186.498 20.4578 188.146 20.6246V21H182.181V20.6246C183.829 20.4578 183.849 20.1241 183.849 17.9968V7.5901Z" fill="#0F172A"/>
<path d="M175.151 10.343C173.254 10.343 172.503 12.2408 172.503 14.6809C172.503 16.7038 173.254 20.5203 175.694 20.5203C177.55 20.5203 178.3 18.5391 178.3 16.1199C178.3 14.1595 177.571 10.343 175.151 10.343ZM175.339 9.59219C178.446 9.59219 181.074 12.0323 181.074 15.4108C181.074 18.5808 178.676 21.2711 175.443 21.2711C172.273 21.2711 169.708 18.8102 169.708 15.3691C169.708 12.2825 172.065 9.59219 175.339 9.59219Z" fill="#0F172A"/>
<path d="M162.595 10.343C160.697 10.343 159.946 12.2408 159.946 14.6809C159.946 16.7038 160.697 20.5203 163.137 20.5203C164.993 20.5203 165.744 18.5391 165.744 16.1199C165.744 14.1595 165.014 10.343 162.595 10.343ZM162.783 9.59219C165.89 9.59219 168.518 12.0323 168.518 15.4108C168.518 18.5808 166.12 21.2711 162.887 21.2711C159.717 21.2711 157.152 18.8102 157.152 15.3691C157.152 12.2825 159.508 9.59219 162.783 9.59219Z" fill="#0F172A"/>
<path d="M148.453 11.636C149.308 10.5515 150.079 9.5922 151.769 9.5922C153.521 9.5922 154.939 10.8018 154.939 13.5547V17.9968C154.939 20.1241 154.96 20.4578 156.607 20.6246V21H150.851V20.6246C152.29 20.4578 152.311 20.1241 152.311 17.9968V14.0552C152.311 12.2617 151.664 11.3649 150.371 11.3649C149.558 11.3649 148.849 11.6569 148.453 12.22V17.9968C148.453 20.1241 148.474 20.4578 149.913 20.6246V21H144.157V20.6246C145.804 20.4578 145.825 20.1241 145.825 17.9968V7.5901C145.825 5.65057 145.679 5.65057 144.157 5.588V5.23346L148.515 3.83617C148.494 4.94149 148.453 6.29708 148.453 8.44516V11.636Z" fill="#0F172A"/>
<path d="M139.935 9.59219C141.749 9.59219 143.251 10.5307 143.251 11.6777C143.251 12.4076 142.708 12.9499 141.853 12.9499C141.499 12.9499 141.186 12.9082 140.915 12.4285L139.976 10.8435C139.789 10.5307 139.664 10.4681 139.33 10.4681C137.828 10.4681 136.494 11.7403 136.494 14.5349C136.494 17.5589 138.204 19.2482 140.456 19.2482C141.353 19.2482 142.437 18.8728 143.251 18.2262L143.501 18.4348C142.729 19.6653 141.499 21.2711 139.267 21.2711C135.931 21.2711 134.137 18.831 134.137 15.6402C134.137 11.7403 137.182 9.59219 139.935 9.59219Z" fill="#0F172A"/>
<path d="M127.027 21.2711C124.962 21.2711 123.231 20.7914 122.001 20.1449V15.0563H122.418C122.981 18.9562 124.566 20.4995 127.027 20.4995C128.862 20.4995 130.385 19.6235 130.385 17.7257C130.385 16.3284 129.258 15.5568 127.59 14.7851L125.734 13.9092C123.502 12.8456 122.126 11.49 122.126 9.46706C122.126 7.06871 124.399 5.4003 127.319 5.4003C128.82 5.4003 130.781 5.8174 131.803 6.44306V10.7184H131.386C130.802 7.71523 129.383 6.17194 127.298 6.17194C125.609 6.17194 124.42 6.94358 124.42 8.4243C124.42 9.86331 125.4 10.5515 126.505 11.0521L128.716 12.0948C131.052 13.2001 132.762 14.3055 132.762 16.5995C132.762 19.3316 130.134 21.2711 127.027 21.2711Z" fill="#0F172A"/>
<path d="M104.765 17.9968V7.5901C104.765 5.65057 104.619 5.65057 103.096 5.588V5.23346L107.455 3.83617C107.434 4.94149 107.392 6.29708 107.392 8.44516V17.9968C107.392 20.1241 107.413 20.4578 109.061 20.6246V21H103.096V20.6246C104.744 20.4578 104.765 20.1241 104.765 17.9968ZM110.312 21V20.6246C111.71 20.5412 111.751 20.2701 110.896 19.2064L107.434 14.9728L110.959 11.9697C111.96 11.0938 112.711 10.1553 110.896 10.1553V9.7799H115.589V10.1553C114.296 10.1553 113.461 10.6975 112.064 11.928L109.77 13.8675L114.254 19.4567C114.9 20.2284 115.422 20.6037 116.339 20.6246V21H110.312Z" fill="#0F172A"/>
<path d="M93.8408 21V20.6246C95.4884 20.4578 95.5093 20.1241 95.5093 17.9968V13.367C95.5093 11.4275 95.3633 11.4066 93.8408 11.344V10.9895L98.0953 9.59219L98.137 11.9905C98.9087 10.9895 99.9514 9.59219 101.307 9.59219C102.287 9.59219 103.017 10.1553 103.017 11.1563C103.017 11.9697 102.35 12.6788 101.411 12.6788C101.057 12.6788 100.911 12.5953 100.598 12.2617L99.9306 11.49C99.8263 11.3649 99.722 11.3023 99.6386 11.3023C99.3258 11.3023 98.7001 11.8654 98.137 12.5953V17.9968C98.137 20.2909 98.283 20.416 100.473 20.5829V21H93.8408Z" fill="#0F172A"/>
<path d="M87.1449 10.343C85.247 10.343 84.4962 12.2408 84.4962 14.6809C84.4962 16.7038 85.247 20.5203 87.6871 20.5203C89.5432 20.5203 90.294 18.5391 90.294 16.1199C90.294 14.1595 89.5641 10.343 87.1449 10.343ZM87.3326 9.59219C90.44 9.59219 93.0677 12.0323 93.0677 15.4108C93.0677 18.5808 90.6694 21.2711 87.4368 21.2711C84.2668 21.2711 81.7016 18.8102 81.7016 15.3691C81.7016 12.2825 84.0583 9.59219 87.3326 9.59219Z" fill="#0F172A"/>
<path d="M75.694 21.1668L73.254 13.3253L70.7305 21.1668H69.4166L66.2883 11.5526C65.9755 10.635 65.7461 10.2387 64.8911 10.1553V9.77989H70.376V10.1553C68.8327 10.2596 68.9161 10.7392 69.2498 11.8028L70.9599 17.6214L73.4208 9.77989H74.7973L77.1748 17.6632L78.6972 12.8039C79.3646 10.6767 79.1977 10.2596 77.9881 10.1553V9.77989H81.7629V10.1553C80.7201 10.2596 80.4282 10.5932 79.9277 12.1157L77.0288 21.1668H75.694Z" fill="#0F172A"/>
<path d="M62.1333 21.2711C60.4023 21.2711 59.443 20.3952 59.443 17.8926V10.6975H57.6703V9.77989H59.4847V8.17404L62.0707 6.21365V9.77989H64.8027V10.6975H62.0707V17.4546C62.0707 19.0813 62.1541 19.7487 63.4054 19.7487C63.9685 19.7487 64.4482 19.5818 65.0947 19.1022L65.3033 19.2899C64.5316 20.2283 63.8226 21.2711 62.1333 21.2711Z" fill="#0F172A"/>
<path d="M52.6249 21.2711C49.3298 21.2711 47.5154 18.9145 47.5154 15.6611C47.5154 12.3868 49.8929 9.59219 52.7709 9.59219C55.2735 9.59219 57.1297 11.1563 57.2965 14.0969H49.8512V14.2638C49.8512 17.6632 51.6656 19.2482 53.918 19.2482C55.3361 19.2482 56.4206 18.7268 57.0879 18.0385L57.3382 18.2471C56.6083 19.4776 55.1484 21.2711 52.6249 21.2711ZM52.4581 10.4055C50.9565 10.4055 50.1223 11.5109 49.8929 13.2627H54.6687C54.5853 11.2606 53.6886 10.4055 52.4581 10.4055Z" fill="#0F172A"/>
<path d="M43.8087 8.92483C43.8087 6.75589 43.7462 6.52649 41.7441 6.25537V5.87997H46.8536V6.25537C44.8515 6.52649 44.7889 6.75589 44.7889 8.92483V21H43.0371L34.1528 9.50878V17.9551C34.1528 20.0824 34.2153 20.3952 36.2174 20.6246V21H31.1079V20.6246C33.11 20.3952 33.1726 20.0824 33.1726 17.9551V8.23661L32.818 7.7778C32.0881 6.7976 31.6919 6.42221 31.1079 6.1928V5.87997H34.987L43.8087 17.2252V8.92483Z" fill="#0F172A"/>
</svg>
